<?xml version="1.0" encoding="UTF-8"?>
<!-- Uploaded to: SVG Repo, www.svgrepo.com, Generator: SVG Repo Mixer Tools -->
<svg fill="#000000" width="800px" height="800px" version="1.1" viewBox="144 144 512 512" xmlns="http://www.w3.org/2000/svg">
 <g>
  <path d="m190.08 361.08v143.92c0 57.855 47.086 104.92 104.96 104.92h209.96c57.855 0 104.92-47.062 104.92-104.92v-143.92zm153.62 136.45c8.668 7.7031 9.4453 20.973 1.7422 29.641-4.1367 4.6602-9.9102 7.0312-15.703 7.0312-4.9531 0-9.9492-1.7422-13.938-5.3125l-56.152-49.941c-4.4727-3.9688-7.0312-9.6758-7.0312-15.68s2.5625-11.715 7.0547-15.703l56.176-49.918c8.668-7.7031 21.914-6.9258 29.641 1.7422 7.7031 8.668 6.9258 21.938-1.7422 29.641l-38.5 34.219zm90.602-80.398-28.129 102.78c-2.5625 9.3203-11 15.449-20.238 15.449-13.582 0.14844-24.059-13.434-20.258-26.555l28.129-102.78c7.707-26.473 47.34-15.66 40.496 11.105zm106.05 61.484-56.152 49.941c-3.9883 3.5469-8.9844 5.3125-13.938 5.3125-5.793 0-11.547-2.3711-15.703-7.0312-7.7031-8.668-6.9258-21.938 1.7422-29.641l38.52-34.258-38.52-34.238c-8.668-7.7031-9.4453-20.973-1.7422-29.641 7.7031-8.668 20.949-9.4688 29.641-1.7422l56.176 49.918c4.4727 3.9883 7.0312 9.6992 7.0312 15.703 0 6-2.582 11.707-7.0547 15.676z"/>
  <path d="m609.92 319.09v-24.078c0-57.852-47.062-104.94-104.92-104.94h-209.96c-57.875 0-104.96 47.086-104.96 104.94v24.078zm-251.9-84.703h95.281c11.586 0 20.992 9.4062 20.992 20.992 0 11.586-9.4062 20.992-20.992 20.992h-95.281c-11.586 0-20.992-9.4062-20.992-20.992 0-11.586 9.4023-20.992 20.992-20.992zm-75.215 0h11.316c11.586 0 20.992 9.4062 20.992 20.992 0 11.586-9.4062 20.992-20.992 20.992h-11.316c-11.586 0-20.992-9.4062-20.992-20.992 0-11.586 9.3828-20.992 20.992-20.992z"/>
 </g>
</svg>